<svg width="43" height="43" viewBox="0 0 43 43" fill="none" xmlns="http://www.w3.org/2000/svg">
<circle cx="21.5" cy="21.5" r="21.5" fill="#103762"/>
<path d="M30.0332 15.8603C30.1799 14.9022 30.1799 13.9027 30.0332 12.9446L28.9224 12.7529C28.7285 12.7063 28.5818 12.6079 28.5346 12.4681C28.4403 12.1315 28.2464 11.4634 27.9058 10.8419C27.8115 10.7487 27.8115 10.557 27.9058 10.412L28.5818 9.50571C28.0001 8.69261 27.277 7.97791 26.5015 7.40305L25.5845 8.06596C25.4378 8.15918 25.2439 8.21097 25.1025 8.11257C25.0081 8.06596 24.1331 7.58431 23.5043 7.44448C23.3576 7.39787 23.2161 7.25286 23.1637 7.10784L22.9698 5.95811C22.4877 5.9115 22.0004 5.86489 21.5183 5.86489C20.9839 5.86489 20.5018 5.9115 20.0197 5.95811L19.8258 7.10784C19.7787 7.25286 19.6791 7.39269 19.5376 7.44448C18.9089 7.58949 17.9919 8.06596 17.9395 8.11257C17.7456 8.20579 17.5989 8.15918 17.4574 8.06596L16.5404 7.39787C15.7177 7.97273 14.9946 8.68743 14.4601 9.50053L15.0889 10.4069C15.1833 10.5519 15.2357 10.7435 15.1361 10.8367C14.7483 11.4582 14.5545 12.1263 14.4601 12.4629C14.413 12.6079 14.2663 12.7011 14.1196 12.7478L13.0087 12.9394C12.8148 13.8975 12.8148 14.897 13.0087 15.8551L14.1196 16.0468C14.2663 16.0468 14.4077 16.1918 14.4601 16.3316C14.5545 16.6682 14.7483 17.3363 15.1361 17.9112C15.2304 18.0562 15.1833 18.2478 15.0889 18.3877L14.4601 19.294C14.9946 20.1071 15.7177 20.8218 16.5404 21.35L17.4574 20.7286C17.6041 20.6353 17.7456 20.5835 17.9395 20.6819C17.9866 20.7286 18.9089 21.1584 19.5376 21.35C19.6844 21.3966 19.7787 21.495 19.8258 21.6867L20.0197 22.7846C20.5018 22.8778 20.9891 22.9296 21.5183 22.9296C22.0004 22.9296 22.4877 22.883 22.9698 22.7846L23.1637 21.6867C23.2108 21.495 23.3576 21.4018 23.5043 21.35C24.1331 21.1584 25.0029 20.7286 25.1025 20.6819C25.2492 20.5887 25.443 20.6353 25.5845 20.7286L26.5015 21.35C27.277 20.8218 28.0001 20.1071 28.5818 19.294L27.9058 18.3877C27.8115 18.2426 27.8115 18.051 27.9058 17.9112C28.2464 17.3363 28.4403 16.6682 28.5346 16.3316C28.5818 16.1866 28.7285 16.0468 28.9224 16.0468L30.0332 15.8603ZM27.1303 14.3791C27.1303 11.3184 24.6151 8.83244 21.5183 8.83244C18.4215 8.83244 15.8592 11.3184 15.8592 14.3791C15.8592 17.4865 18.4215 19.9724 21.5183 19.9724C24.6151 19.9724 27.1303 17.4865 27.1303 14.3791ZM19.7315 15.5703C19.7787 16.285 20.4546 16.7666 21.0834 16.8599V17.528C21.0834 18.0562 21.9061 18.0562 21.9061 17.528V16.9065C22.6292 16.7615 23.3104 16.2384 23.3104 15.4719C23.3104 13.4625 20.5542 14.4206 20.5542 13.3226C20.5542 12.4629 22.3934 12.4629 22.4877 13.276C22.5349 13.8043 23.3576 13.7059 23.3104 13.1828C23.2161 12.5147 22.5873 12.0331 21.9061 11.8932V11.2251C21.9061 10.6969 21.0834 10.6969 21.0834 11.2251V11.8932C20.4075 12.0382 19.7315 12.5613 19.7315 13.3278C19.7315 15.3372 22.4877 14.3325 22.4877 15.4771C22.4877 16.2436 20.6014 16.3368 20.5542 15.5237C20.4599 15.0006 19.6844 15.0472 19.7315 15.5703ZM27.6648 29.9627H15.2828V31.9721H27.6648V29.9627ZM16.8286 32.8318C16.9753 34.2198 17.1168 35.6026 17.2635 36.9906C17.4102 37.612 17.7456 38.0885 18.4268 38.1869H24.568C25.1968 38.0937 25.5845 37.612 25.6788 36.9906C25.8256 35.6026 26.0194 34.2198 26.1609 32.8318H16.8286ZM22.2467 27.4302L26.1662 25.949C26.7006 25.7573 26.9888 26.5238 26.4544 26.7155L22.4877 28.2433C23.7925 28.8181 25.2911 29.0097 26.6482 28.4349C28.2464 27.8134 29.2106 26.4772 29.745 24.9443C28.2936 24.1778 26.6482 23.8929 25.0553 24.5144C23.6982 25.0375 22.7812 26.1354 22.2467 27.4302ZM22.3934 29.103C22.1052 29.0097 21.8118 28.8647 21.5236 28.6731C21.2354 28.8647 20.9419 29.0097 20.6066 29.103H22.3934ZM21.9585 23.7479V26.1406C22.5873 25.0893 23.5567 24.1829 24.7619 23.7013C26.6482 22.9866 28.7285 23.3647 30.4681 24.3694C30.6149 24.5144 30.7092 24.706 30.6149 24.8976C30.1328 26.7155 29.0167 28.3417 27.2299 29.103H28.0997C28.3407 29.103 28.5346 29.2946 28.5346 29.5328V32.402C28.5346 32.6402 28.3407 32.8318 28.0997 32.8318H27.036C26.8421 34.2664 26.6954 35.701 26.5539 37.1356C26.36 38.1403 25.6369 38.9534 24.5732 39H18.4268C17.3631 38.9534 16.5876 38.1403 16.4461 37.089C16.2994 35.701 16.1055 34.2664 15.964 32.8318H14.8531C14.6121 32.8318 14.4654 32.6402 14.4654 32.402V29.5328C14.4654 29.2946 14.6593 29.103 14.9003 29.103H15.7701C14.0305 28.3365 12.9144 26.7103 12.3851 24.8976C12.338 24.706 12.3851 24.5144 12.579 24.3694C14.2715 23.3647 16.3518 22.9814 18.2853 23.7013C19.4957 24.1778 20.4127 25.0893 21.0887 26.1406V23.7479C20.5542 23.7479 20.0721 23.7013 19.59 23.5563C19.3962 23.5563 19.2494 23.4113 19.2494 23.2196L19.0556 22.0699C18.5735 21.9249 18.1386 21.7333 17.7508 21.5417L16.7814 22.2201C16.6347 22.3133 16.4408 22.3133 16.2994 22.2201C15.1885 21.5054 14.2663 20.5939 13.5432 19.5426C13.4488 19.3976 13.496 19.1593 13.5903 19.0661L14.2663 18.108C14.0252 17.6781 13.8785 17.2483 13.7318 16.8184L12.5685 16.6268C12.3747 16.6268 12.2279 16.4352 12.1808 16.2902C11.9397 15.0472 11.9397 13.7577 12.1808 12.5147C12.2279 12.3231 12.3747 12.1781 12.5685 12.1315L13.7318 11.9398C13.8785 11.51 14.02 11.0801 14.2663 10.6969L13.5903 9.73877C13.496 9.59375 13.4436 9.40213 13.5432 9.2623C14.2663 8.16436 15.1885 7.25286 16.2994 6.58477C16.4461 6.43976 16.64 6.43976 16.7814 6.53816L17.7508 7.25286C18.1386 7.01462 18.5735 6.86961 19.0556 6.7246L19.2494 5.52826C19.2494 5.38324 19.3962 5.24341 19.59 5.19162C20.2188 5.0984 20.8476 5 21.5236 5C22.1524 5 22.8283 5.09322 23.4571 5.19162C23.651 5.23823 23.7453 5.38324 23.7977 5.52826L23.9916 6.7246C24.4265 6.86961 24.8614 7.00944 25.2963 7.25286L26.2657 6.53816C26.4124 6.44494 26.6063 6.44494 26.7478 6.58477C27.8115 7.25286 28.7285 8.16436 29.4568 9.2623C29.5512 9.40731 29.5512 9.59893 29.4568 9.73877L28.7809 10.6969C28.9748 11.0801 29.1686 11.51 29.3154 11.9398L30.4786 12.1315C30.6725 12.1781 30.8192 12.3231 30.8192 12.5147C31.0603 13.7577 31.0603 15.0472 30.8192 16.2902C30.8192 16.4352 30.6725 16.6268 30.4786 16.6268L29.3154 16.8184C29.1686 17.2483 28.9748 17.6781 28.7809 18.108L29.4568 19.0661C29.5512 19.1593 29.5512 19.4027 29.4568 19.5426C28.7337 20.5939 27.8115 21.5002 26.7478 22.2201C26.6011 22.3133 26.4072 22.3133 26.2657 22.2201L25.2963 21.552C24.8614 21.7436 24.4265 21.9353 23.9916 22.0803L23.7977 23.23C23.7453 23.4113 23.651 23.5563 23.4571 23.5563C22.975 23.7013 22.4406 23.7479 21.9585 23.7479ZM13.2969 24.9443C13.779 26.472 14.7955 27.8134 16.3465 28.4349C17.7508 29.0097 19.2023 28.8181 20.507 28.2433L16.5404 26.7155C16.0583 26.5238 16.3465 25.7573 16.881 25.949L20.8005 27.4302C20.266 26.1406 19.3018 25.0375 17.9447 24.5144C16.3937 23.8929 14.7012 24.1778 13.2969 24.9443ZM26.2605 14.3791C26.2605 17.0101 24.1331 19.1593 21.5183 19.1593C18.8565 19.1593 16.729 17.0101 16.729 14.3791C16.729 11.7482 18.8565 9.64554 21.5183 9.64554C24.1331 9.64554 26.2605 11.7482 26.2605 14.3791Z" fill="white"/>
</svg>
