<svg width="43" height="43" viewBox="0 0 43 43" fill="none" xmlns="http://www.w3.org/2000/svg">
<circle cx="21.5" cy="21.5" r="21.5" fill="#103762"/>
<path d="M10.1677 10.2315H10.1177V10.2815V33.7185V33.7685H10.1677H31.8323H31.8823V33.7185V10.2815V10.2315H31.8323H10.1677ZM9.05 9.05H32.95V34.95H9.05V9.05Z" fill="white" stroke="#103762" stroke-width="0.1"/>
<path d="M12.6262 12.7609H12.5762V12.8109V20.0949V20.1449H12.6262H19.2638H19.3138V20.0949V12.8109V12.7609H19.2638H12.6262ZM11.5084 11.5794H20.3815V21.3264H11.5084V11.5794Z" fill="white" stroke="#103762" stroke-width="0.1"/>
<path d="M22.7362 12.7609H22.6862V12.8109V20.0949V20.1449H22.7362H29.3739H29.4239V20.0949V12.8109V12.7609H29.3739H22.7362ZM21.6185 11.5794H30.4916V21.3264H21.6185V11.5794Z" fill="white" stroke="#103762" stroke-width="0.1"/>
<path d="M12.6262 23.8554H12.5762V23.9054V31.1894V31.2394H12.6262H19.2638H19.3138V31.1894V23.9054V23.8554H19.2638H12.6262ZM11.5084 22.6739H20.3815V32.4209H11.5084V22.6739Z" fill="white" stroke="#103762" stroke-width="0.1"/>
<path d="M22.7362 23.8554H22.6862V23.9054V31.1894V31.2394H22.7362H29.3739H29.4239V31.1894V23.9054V23.8554H29.3739H22.7362ZM21.6185 22.6739H30.4916V32.4209H21.6185V22.6739Z" fill="white" stroke="#103762" stroke-width="0.1"/>
</svg>
