<svg width="43" height="43" viewBox="0 0 43 43" fill="none" xmlns="http://www.w3.org/2000/svg">
<circle cx="21.5" cy="21.5" r="21.5" fill="#103762"/>
<path d="M20.9139 13.1951C16.0956 13.1951 12.195 17.0956 12.195 21.914C12.195 26.7324 16.0956 30.6329 20.9139 30.6329C25.7323 30.6329 29.6329 26.7324 29.6329 21.914C29.6329 17.0956 25.7323 13.1951 20.9139 13.1951ZM20.9139 23.9216C19.1357 23.9216 17.6443 22.4876 17.6443 20.652C17.6443 18.8165 19.0784 17.3824 20.9139 17.3824C22.6921 17.3824 24.1835 18.8165 24.1835 20.652C24.1835 22.4876 22.6921 23.9216 20.9139 23.9216ZM18.9637 24.5526C20.1682 25.1262 21.6023 25.1836 22.8069 24.5526C24.2409 25.0115 25.5028 26.044 26.2485 27.3633C23.2658 30.3461 18.4474 30.3461 15.4646 27.3633C16.2677 25.9867 17.5296 25.0115 18.9637 24.5526ZM27.0516 26.5029C26.3059 25.2983 25.1587 24.3805 23.8967 23.8069C24.6998 23.0039 25.216 21.914 25.216 20.7094C25.216 18.3576 23.2658 16.4073 20.9139 16.4073C18.5621 16.4073 16.6118 18.3576 16.6118 20.7094C16.6118 21.914 17.1281 23.0612 17.9311 23.8069C16.6692 24.3805 15.5793 25.2983 14.7763 26.5029C13.8011 25.241 13.2275 23.6348 13.2275 21.914C13.2275 17.7266 16.6692 14.2849 20.8566 14.2849C25.044 14.2849 28.4856 17.7266 28.4856 21.914C28.543 23.6348 27.9694 25.1836 27.0516 26.5029Z" fill="white"/>
<path d="M35.4837 18.4149L32.9598 17.5545C32.8451 17.2103 32.673 16.8088 32.501 16.4646L33.6482 14.1128C33.7629 13.8834 33.7055 13.6539 33.5335 13.4818L29.2887 9.23709C29.1166 9.06501 28.8872 9.00765 28.6577 9.12237L26.3059 10.2696C25.9618 10.0975 25.6176 9.98279 25.2161 9.81071L24.3556 7.28681C24.3556 7.17208 24.1262 7 23.8967 7H17.9312C17.7017 7 17.5296 7.17208 17.4149 7.34417L16.5545 9.86807C16.2103 9.98279 15.8088 10.1549 15.4646 10.327L13.1128 9.17973C12.8834 9.06501 12.6539 9.12237 12.4818 9.29446L8.23709 13.5392C8.06501 13.7113 8.00765 13.9407 8.12237 14.1702L9.2696 16.522C9.09751 16.8662 8.98279 17.2103 8.81071 17.6119L6.28681 18.4723C6.17208 18.4723 6 18.7017 6 18.9312V24.9541C6 25.1836 6.17208 25.3556 6.34417 25.4704L8.86807 26.2734C8.98279 26.6176 9.15488 27.0191 9.32696 27.3633L8.17973 29.7151C8.06501 29.9445 8.12237 30.174 8.29446 30.3461L12.5392 34.5908C12.7113 34.7629 12.9407 34.8203 13.1702 34.7055L15.522 33.5583C15.8662 33.7304 16.2103 33.8451 16.6119 34.0172L17.4723 36.5411C17.5296 36.7706 17.7591 36.8853 17.9885 36.8853H24.0115C24.2409 36.8853 24.413 36.7132 24.5277 36.5411L25.3881 34.0172C25.7323 33.9025 26.1338 33.7304 26.478 33.5583L28.8298 34.7055C29.0593 34.8203 29.2887 34.7629 29.4608 34.5908L33.7055 30.3461C33.8776 30.174 33.935 29.9445 33.8203 29.7151L32.673 27.3633C32.8451 27.0191 32.9598 26.675 33.1319 26.2734L35.6558 25.413C35.8853 25.3556 36 25.1262 36 24.8967V18.9312C35.8279 18.7017 35.6558 18.4723 35.4837 18.4149ZM34.738 24.5526L32.3862 25.3556C32.2141 25.413 32.0994 25.5277 32.0421 25.6998C31.87 26.2161 31.6979 26.675 31.4685 27.1338C31.4111 27.3059 31.4111 27.478 31.4685 27.5927L32.5583 29.8872L28.8298 33.6157L26.5354 32.5258C26.3633 32.4685 26.1912 32.4685 26.0765 32.5258C25.6176 32.7553 25.1587 32.9273 24.6424 33.0994C24.4704 33.1568 24.3556 33.2715 24.2983 33.4436L23.4952 35.8528H18.2753L17.4723 33.3862C17.4149 33.2141 17.3002 33.0994 17.1281 33.0421C16.6119 32.87 16.153 32.6979 15.6941 32.4685C15.522 32.4111 15.3499 32.4111 15.2352 32.4685L12.9407 33.5583L9.21224 29.8298L10.3021 27.5354C10.3595 27.3633 10.3595 27.1912 10.3021 27.0765C10.0727 26.6176 9.90057 26.1587 9.72849 25.6424C9.72849 25.5277 9.61377 25.413 9.44168 25.3556L7.0325 24.5526V19.3327L9.44168 18.4723C9.61377 18.4149 9.72849 18.3002 9.78585 18.1281C9.95793 17.6119 10.13 17.153 10.3595 16.6941C10.4168 16.522 10.4168 16.3499 10.3595 16.2352L9.2696 13.9407L12.9981 10.2122L15.2925 11.3021C15.4646 11.3595 15.6367 11.3595 15.7514 11.3021C16.2103 11.0727 16.6692 10.9006 17.1855 10.7285C17.3002 10.7285 17.4149 10.6138 17.4723 10.4417L18.2753 8.0325H23.4952L24.3556 10.4417C24.413 10.6138 24.5277 10.7285 24.6998 10.7859C25.2161 10.9579 25.675 11.13 26.1338 11.3595C26.3059 11.4168 26.478 11.4168 26.5927 11.3595L28.8872 10.2696L32.6157 13.9981L31.5258 16.2925C31.4685 16.4646 31.4685 16.6367 31.5258 16.7514C31.7553 17.2103 31.9273 17.6692 32.0994 18.1855C32.1568 18.3576 32.2715 18.4723 32.4436 18.5296L34.8528 19.3327V24.5526H34.738Z" fill="white"/>
</svg>
