<svg width="43" height="43" viewBox="0 0 43 43" fill="none" xmlns="http://www.w3.org/2000/svg">
<circle cx="21.5" cy="21.5" r="21.5" fill="#103762"/>
<path d="M16.1314 22.3592H11.8724V17.0833H9.65766L13.9849 12.1138L18.3121 17.0833H16.0974L16.1314 22.3592ZM12.8945 21.338H15.0752V16.0622H16.0633L13.9849 13.6796L11.9064 16.0622H12.8945V21.338ZM23.1163 22.3592H18.8913V9.96948H16.6766L21.0038 5L25.331 9.96948H23.1163V22.3592ZM19.9135 21.338H22.0941V8.94836H23.0822L21.0038 6.56573L18.9254 8.94836H19.9135V21.338ZM30.1352 22.3592H25.8762V17.0833H23.6615L27.9887 12.1138L32.3159 17.0833H30.1012V22.3592H30.1352ZM26.8984 21.338H29.079V16.0622H30.0671L27.9887 13.6796L25.9102 16.0622H26.8984V21.338ZM34.8372 26.8181C34.3602 25.5587 32.9292 24.946 31.6685 25.4225L26.6598 27.3627C26.4895 26.1714 25.4673 25.2523 24.2407 25.2523H19.8453C18.9254 24.7077 17.4943 24.0951 15.6544 24.1631C13.9508 24.1972 12.656 24.7758 11.8042 25.2523H7V34H11.4294H12.7242H22.4689C22.7415 34 23.0141 33.966 23.2526 33.8638C23.3889 33.8298 23.5252 33.7958 23.6274 33.7617L33.4403 29.9836C34.0536 29.7453 34.5306 29.3028 34.8032 28.6901C35.0417 28.1115 35.0758 27.4307 34.8372 26.8181ZM8.02218 33.0129V26.2735H11.4294V32.9789H8.02218V33.0129ZM33.8491 28.2817C33.6788 28.6221 33.4062 28.8944 33.0655 29.0305L23.2526 32.8427C23.1844 32.8768 23.1163 32.8768 23.0141 32.9108L22.9459 32.9448C22.7756 33.0129 22.6393 33.0129 22.4689 33.0129H12.4516V26.0692C13.2012 25.6608 14.2915 25.2183 15.6885 25.1843C17.4603 25.1502 18.7891 25.7969 19.4365 26.2054L19.5728 26.2735H24.2748C25.0584 26.2735 25.7058 26.9202 25.7058 27.7031C25.7058 27.7371 25.7058 27.8052 25.7058 27.8392V27.8732C25.7058 27.9073 25.7058 27.9413 25.7058 27.9754V28.0434C25.7058 28.0775 25.7058 28.0775 25.7058 28.1115C25.7058 28.1455 25.7058 28.1455 25.6717 28.1796L25.6377 28.2136C25.6377 28.2477 25.6036 28.2477 25.6036 28.2817L25.5695 28.3157C25.5695 28.3498 25.5354 28.3498 25.5354 28.3838L25.4673 28.4519C25.4673 28.4859 25.4332 28.52 25.3992 28.554C25.1266 28.9284 24.7177 29.1326 24.2407 29.1326H19.5387V30.1538H24.2407C25.0244 30.1538 25.7399 29.7793 26.2169 29.1667L26.251 29.1326C26.285 29.0986 26.3191 29.0305 26.3532 28.9965L26.3873 28.9284C26.4213 28.8944 26.4213 28.8263 26.4554 28.7923L26.4895 28.7242C26.5236 28.6901 26.5236 28.6561 26.5576 28.588C26.5576 28.554 26.5917 28.52 26.5917 28.4859C26.5917 28.4859 26.5917 28.4859 26.5917 28.4519L32.0774 26.3416C32.7929 26.0693 33.6447 26.4096 33.9173 27.1584C34.0195 27.5329 34.0195 27.9413 33.8491 28.2817Z" fill="white"/>
</svg>
